<svg xmlns="http://www.w3.org/2000/svg" viewBox="0 0 173 70"><path d="M61.128 13.037c1.604.101 3.207-.505 4.71-.808 0 0 .1-.101.2-.101-.301-.101-.501-.202-.802-.303-.501-.202-1.904-.808-2.505-.303-.101.101-.501.101-.401 0-.1 0-.2 0-.301.101-1.002.202-2.004.505-3.006.707.703.303 1.304.606 2.105.707zM49.003 6.171c-1.103-.707-2.305-1.313-3.407-1.919v.101c-.1.303-.4.707-.601 1.111.501.202.901.505 1.402.707 1.203.606 3.108 1.717 4.11 2.828.1.303.301.505.501.707.1.101.1.202.2.303.199.202.301.404.4.606 0 .101.101.101.101.202.1.101.301.202.501.202.301.101 1.202-.101 1.503-.202.301-.202.4-.404.501-.808-.802-.809-1.303-1.819-2.004-2.828-.2-.101-.401-.101-.701-.101-.101.404.301 1.212.501 1.414.1.101-.301.303-.401.202-.301-.404-.501-.909-.501-1.313 0-.202.101-.404.301-.505-.199-.404-.4-.808-.601-1.212-.301-.505-.501-1.01-.802-1.515-.301-.303-.902-.707-.902-1.111-.2 0-.301.101-.501.101-.2.101-.301.101-.4 0-.2 0-.401 0-.2-.101l.1-.101c0 .101.2 0 .301.101.101.101.401-.101.501-.101h.101c-.2-.707-1.804-.505-1.804.303 0 1.01 1.102 1.818 1.603 2.727.098 0 .198.101.198.202zm-5.912-1.717c.501.303 1.002.505 1.604.808.1-.202.199-.303.301-.404.1-.303.2-.606.2-.808a9.203 9.203 0 01-1.304-.808c-.1.404-.301.808-.601 1.01 0 .101-.1.101-.2.202zm-1.504-.909c.401.303.902.505 1.303.808.2-.202.302-.303.401-.606.1-.202.2-.505.1-.808l-.1-.101c-.1-.101-.301-.202-.401-.202-.401-.303-2.104.404-1.303.909zm-7.816 8.382c.501-.202.902-.604 1.203-.909.301-.303.701-.808.701-1.313-.302-.202-.602-.303-.902-.505 0 .202-.1.303-.1.505-.101.404-.401.505-.701.808 0 .101-.101.202-.2.202h-.1s-.302 0-.2-.101c.301-.303.701-.505.802-1.01V9.2c-.902.505-1.503 1.212-1.203 1.818.199.303.399.606.7.909zm16.836 4.746c-1.704-1.01-3.307-2.525-5.111-3.636-3.307-.202-6.514-1.414-9.42-3.131-.2.707-.901 1.312-1.402 1.717-.2.202-.501.303-.701.505 1.002 1.111 2.505 1.919 3.907 2.525.602-.202 1.103-.505 1.704-.606a2.84 2.84 0 011.303 0c.401.101.602.303.902.505.601.202 1.102.303 1.704.303.301 0 0 .303-.2.303-.501 0-1.002 0-1.503-.101-.2-.101-.401-.303-.701-.303-.701-.202-1.503-.101-2.205 0-.301.101-.7.202-1.002.303l-.199.202c-.602.909.601 1.01 1.703.909 0 0 .101 0 .101.101.2.101.4.202.701.202 1.202.909 2.705.505 4.109.101h.1c.401.101.803.202 1.304.202l2.104.303c1.303.202 2.505.202 3.708.101a1.926 1.926 0 01-.906-.505zM39.082 15.36c0 .101-.4.202-.4.101v-.303c0-.101.4-.202.4-.101v.303zm85.28-12.421c1.302.808 2.606.909 3.906.303 1.002-.707 1.704-2.02.4-2.828-1.202-.808-3.306-.303-4.709.404-.399.707-.399 1.616.403 2.121zm.4-1.414c.102-.404.603-.505.901-.606.501-.303 1.503-.505 1.805.202.401.303.501.808-.2 1.01-.301.101-.701.101-1.002.101-.399 0-.802 0-1.103-.101-.2-.101-.401-.303-.401-.606zm1.002.303h1.402c.201-.101.201-.303.101-.404-.101 0-.101 0-.101-.101-.101 0-.101 0-.199-.101-.2 0-.2-.101-.1-.202-.201-.101-.401-.101-.603-.101-.2.101-.399.202-.602.303-.199.101-.602.202-.4.505.103.101.401.101.502.101zM65.036 11.22c.4.202.802.505 1.203.707.4.202.901.303 1.402.505.802.303 1.704.404 2.607.606 1.002.303 1.804.404 2.705.909.701.303 1.304.707 1.904 1.212.301.303.501.707.802.909.401.303.902.505 1.403.707l2.706 1.212c1.102.505 2.204.606 3.307.808.802.202 1.503.707 2.205 1.111.802.404 1.603.606 2.404.909.301.101.602.303.902.505h.1l.101.101c.501.303.901.606 1.402.808 1.002.505 1.804 1.01 3.006 1.212.602.101 1.203.101 1.804.202.603 0 1.104-.202 1.605-.303.199 0 .301-.101.501-.101 1.002-.404 2.004-.606 3.006-.909a21.09 21.09 0 003.808-1.212c-1.503.101-3.108-.202-4.611 0-1.002.101-2.004.606-3.006.606-.901 0-1.805-.404-2.607-.606-.501-.101-.901-.303-1.402-.505-.4-.202-.901-.202-1.304-.505-.1-.101-.301-.202-.301-.303-1.303-.404-2.505-.909-3.808-1.313-2.405-.707-5.011-1.313-7.115-2.626-2.105-1.212-4.31-2.02-6.414-3.232-.902-.505-1.102-1.01-1.804-1.616-.802-.707-2.004-.808-3.006-.707-.701 0-1.303.202-1.904.303-.301.101-1.203.202-1.402.303-.399.202-.299.202-.199.303zm56.72-4.847c-1.303-.606-1.704-1.313-1.604-2.424-1.402 1.616-2.607 3.434-4.11 5.05.501-.303 1.103-.505 1.704-.606.701-.101 1.503-.303 2.205-.202.501.101 1.002.101 1.503.202.802.202.601.303 1.703 0 .4-.101.602-.101.803-.202 0 0 0-.101.1-.101.401-.404.701-.909 1.103-1.414-1.202.303-2.205.303-3.407-.303zm-20.443 12.118c1.202-.101 2.306-.404 3.507-.707 1.002-.303 2.004-.606 3.006-1.01.602-.303 1.304-.606 1.805-1.212.399-.505.501-1.01.7-1.515.101-.303.302-.606.501-.909-2.705 1.616-5.512 2.828-8.319 4.343-.9.505-1.902.808-2.904 1.111.502 0 1.103 0 1.704-.101zm19.24-15.047c-.301.909-.198 1.818.804 2.424 1.102.707 2.505 1.01 3.807.606.702-1.01 1.402-1.919 2.306-2.626-1.304.303-2.606.202-3.809-.808-.602-.505-.602-1.212-.4-1.919h-.101c-.903.606-1.705 1.414-2.607 2.323zM79.367 28.287c.301.101.601.202.902.404h.1c.401 0 1.203 0 1.403-.404.1-.202.1-.606 0-.808 0-.202-.101-.303-.2-.404h-.101a10.02 10.02 0 00-2.505-.303c-1.202-.303-1.804 0-3.206.303-.602.101-2.004.808-3.108 1.111-.2 0-.501 0-.701-.101v.101c0 .606-.4 1.01-.7 1.414h1.503c.802 0 1.603-.404 2.305-.606.1 0 .2-.101.301-.101 1.401-.404 2.604-.909 4.007-.606zm.1 4.343c0-.404-.1-.707-.301-1.111-.301-.505-.701-.909-1.303-1.01-.501.505-.802 1.212-.301 1.919.4.505 1.002.707 1.704.707.101-.202.201-.404.201-.505zm16.134-8.686c-1.403.303-3.407 0-4.71-.707-.301-.202-.701-.303-1.002-.505.2.303.4.606.501.909.301.707.501 1.212 1.203 1.616.399.202.9.303 1.401.505.501-.303 1.002-.505 1.503-.808.603-.303.902-.606 1.304-.909-.099-.101-.099-.101-.2-.101zm-5.311.606c-.302-.505-.302-1.01-.602-1.515a3.465 3.465 0 00-1.203-1.212c-.601-.404-1.202-.707-1.902-1.01a12.323 12.323 0 01-2.608-1.212c-1.002-.404-1.804-.505-2.806-.707-1.704-.404-3.406-1.212-4.909-2.02-.602-.303-1.002-.606-1.503-1.111-.602-.707-1.403-1.212-2.306-1.717-.901-.505-1.703-.606-2.705-.909-.803-.202-1.503-.202-2.306-.505-.4-.101-.7-.303-1.102-.404-.1.101-.301.202-.401.101-.301.202-.901.202-1.202.303-.602.101-1.103.202-1.704.303-.902.202-1.804.404-2.706.202-.701-.101-1.203-.505-1.804-.808-.501.101-1.002.303-1.503.404-.802-.505-1.403-1.313-2.205-2.02-.1-.101-.301-.202-.401-.303-.199.303-.601.606-.901.808-.501.202-1.002.202-1.604.101.2.404.501.707.701 1.01l1.203.909c.301.303.601.505.902.909.1.101.199.303.301.303.301-.101.601-.202.901-.404v-.404c0-.101.401-.202.401-.101 0 .707-.701 1.414-1.503 1.212-.601-.101-.902-.909-1.403-1.212l-.1-.101c-.802 0-1.503-.202-2.405-.303-.7-.101-1.402-.202-2.104-.202-.701.101-1.603.202-2.505.202 1.002.606 2.004 1.414 2.906 2.121.901.707 1.804 1.414 2.905 1.919 1.002-.101 1.904-.202 2.806-.404-.301 0-.7-.101-1.002-.202-.802-.202-1.804-.505-2.606-.909-.601-.303-1.002-1.01-1.704-1.01-.301 0 0-.303.2-.303.401 0 .601.101 1.002.303.301.202.501.505.902.707.301.202.7.202 1.102.404.401.202.902.404 1.303.505.501.101 1.002.101 1.403.202.1 0 .301.101.4.101.302-.101.501-.101.803-.202 2.505-.707 4.81-1.212 7.316-1.515.501-.303 1.102-.505 1.704-.707s1.303-.202 1.903-.202c.802.101 1.403.808 2.205.808.301 0 0 .303-.2.303-.501 0-.802-.202-1.203-.404-.901-.404-1.804-.505-2.705-.202-.302.101-.701.202-1.002.404.4.606 1.503 1.01 2.004 1.313a165.02 165.02 0 007.316 3.737c1.603.808 3.406 1.312 5.111 1.818l-.601-.606c-.701-.808-1.303-1.414-2.205-1.919-.701-.404-1.303-1.01-1.804-1.515-.101-.101.301-.202.4-.202.602.707 1.304 1.212 2.105 1.616.601.303 1.002.808 1.503 1.313.601.606.901 1.111 1.603 1.515.701.202 1.303.404 2.004.606.401.101.701.202 1.002.303-.501-.505-.901-1.111-1.503-1.616-1.102-.808-2.606-1.111-3.808-1.717-.1 0 .301-.202.401-.202.601.303 1.202.404 1.804.707.701.303 1.402.505 2.004 1.01.601.505 1.102 1.212 1.603 1.717.2.202.401.303.602.404.501.202 1.002.303 1.402.404.701.101 1.704.505 2.305 0 .102-.101.501-.101.401 0a2.45 2.45 0 01-1.503.505c-.501.404-1.002.808-1.503 1.313 1.203 1.313.802 3.838 0 5.353l-.601.909c.4-.303.7-.606.802-.909.601-.303 1.203-.606 1.704-1.01-.101-.101 0-.303.199-.303.102 0 .2 0 .2.101.501-.303 1.103-.606 1.604-1.01.901-.707 1.703-1.414 2.505-2.121a3.04 3.04 0 01.7-.505c-.897-.202-1.699-.303-2.2-1.313zm-17.938-8.483c0-.202-.301-.202-.501-.202h-.601c-.101 0-.101 0 0-.101.1-.101.199-.101.301-.101.4 0 .802.101 1.203.202v.101c.099.101-.402.202-.402.101zm15.633 12.927c0 .202-.399.202-.399.101v-.505c0-.202.399-.202.399-.101v.505zm0-1.717c0 .101-.399.202-.399.101 0-.303.1-.707 0-1.01 0-.303-.302-.606-.501-.808-.102-.101.301-.202.399-.202.2.202.401.505.501.808.1.404 0 .808 0 1.111zm33.67-16.966c-.801.101-1.604-.101-2.404-.101-.301 0 0-.202.2-.202.802 0 1.904.202 2.705 0 .101 0 .201-.101.201-.101.3-.404.601-.707 1.002-1.111-.102 0-.303.101-.401.101-.902.202-1.603-.303-2.505-.404-1.304-.202-2.807-.101-4.009.404-.501.202-.902.606-1.304.909-.199.202-.4.404-.602.505-1.002.909-2.104 1.616-3.307 2.323-.301.404-.501.909-.602 1.212-.3.707-.501 1.313-1.002 1.919-.901.909-2.404 1.515-3.609 1.818-1.702.505-3.205 1.01-4.909 1.212-.901.101-1.703 0-2.607 0-1.002.303-1.903.505-2.905.808-1.002.303-1.903.707-2.805 1.111.1 0 .198.101.198.101.701.202 1.403.404 2.004.606 1.806.404 3.507-.404 5.313-.404 1.401 0 2.904.202 4.308 0 .803-.404 1.705-.808 2.505-1.212l2.404-1.212h.101c.901-.505 1.805-.909 2.707-1.414 0-.101.1-.101.1-.202.1-.202.301-.303.401-.505.198-.303.198-.606.198-1.01 0-.707-.1-1.616.401-2.222.501-.707 1.703-.909 2.305-.303.102.101-.301.202-.399.202-.303-.303-1.503.202-1.705.606-.101.101-.101.404-.101.505-.1.505 0 1.111 0 1.616-.1.404-.301.606-.501 1.01.101-.101.2-.101.303-.202-.201.303-.303.707-.501 1.01-.401.909-.501 1.919-1.104 2.727-.501.606 1.303.505 1.605 0 .501-.606.601-1.212.9-1.919.301-.909.802-1.717 1.203-2.525.1-.303.199-.505.301-.707 1.203-.707 2.305-1.414 3.406-2.323 1.103-.808 2.004-1.717 2.807-2.626h-.296zm-5.11-.202c0 .101-.198.101-.301.101-.399 0-.802.202-1.203.303-.301.101-.301-.202-.1-.303.501-.101 1.002-.303 1.503-.303.101 0 .2.101.101.202zM81.872 30.004c.401 0 .601-.101.902-.101.501-.505 1.202-.707 1.603-1.313.501-.808.1-1.313-.501-1.717l-.1.202c-.101 0-.2.101-.401.101h-1.203c.2 0 .2.505.2.909-.1.707-1.102.808-1.804.808l-1.203.606c.503.505 1.705.505 2.507.505zm-11.825-1.212c-.301.303-.301.606.4.707h.501v-.101c.2-.303.501-.505.602-.808.1-.202.1-.505 0-.606h-.501c-.301.101-.902.404-1.002.808zm15.132-3.03c-.1.101-.2.202-.4.303-.2.202-.501.404-.803.606.602.404 1.002.808.701 1.616-.301.909-1.303 1.01-1.903 1.717-.101.101-.302.101-.401.101-.2-.101-.501.101-.701.101-.4 0-.701-.101-1.102-.101-.902-.101-1.303.101-1.904-.404 0 0-.1 0-.1.101-.2.101-.401.303-.602.505.701.202 1.304.808 1.604 1.515.2.404.2.909 0 1.313.701 0 1.402-.101 1.804-.303.301 0 .701-.101 1.102-.202.101-.101.2-.101.2-.202.602-.404 1.103-.606 1.604-1.212 1.402-1.111 2.204-4.04.901-5.454z" fill="#aa9d68"/><path d="M18.74 37.981c-.301-.809-.902-.909-1.704-.606-1.002.505-3.708.304-6.514.304-1.804-.102-5.211.201-7.015-.304-.701-.202-1.203-.202-1.704.404-.401.403-.701.909-.802 1.515-.1.505-.4 1.111-.601 1.616-.4.707-.4 1.414-.4 2.222 0 .506.501.81.902.506.4-.203.802-.506 1.102-.91.301-.303.602-.808.902-1.312.501-.809 1.503-1.516 2.105-1.616a4.951 4.951 0 011.203-.203c.902 0 2.806.506 2.706 2.525v1.616c-.101.908-.301 1.717-.301 2.626 0 1.11-.2 2.321-.302 3.434 0 .81.101 1.718.2 2.525-.1 1.312-.1 2.626-.2 3.938 0 1.717-.4 2.12-2.204 2.424l-.701.102h-.1s-.1 0-.1.102c-.501.303-.701 1.01-.1 1.414.2.101.401.302.701.302.601.102 1.203.204 1.904.102.701 0 1.303-.102 2.004 0 .401.102.802 0 1.203.102l3.107.101h1.001c.501-.103.902-.404.902-.909.1-.505-.2-1.01-.802-1.212-.501-.103-1.103-.202-1.704-.202-.701.102-1.403-.402-1.604-1.212-.1-.403-.199-.81-.1-1.212.1-2.021.301-4.04.401-6.161-.099-.305-.099-.911-.099-1.518v-4.443l.101-2.021c0-.303-.101-.707 0-.908.1-.606.4-1.01 1.002-1.111.301 0 .601-.102.802-.202h.501c.2 0 .4.101.601.101h.099l.199.102c.501.303 1.304 1.01 1.604 1.516.4.504.601 1.11 1.002 1.615.2.404.501.707.802 1.01.1.103.2.203.301.305.602.201 1.303-.102 1.403-.707 0-.304 0-.707-.101-1.111-.4-1.619-1.001-3.134-1.602-4.649zm24.551 7.474h-3.608c-.701 0-1.002.505-.701 1.109 0 0 .1.203.2.305l.1.102c1.603 1.717.301 3.435-.501 5.453-.2.606-.401 1.213-.701 1.719-.301.604-.802.707-1.203.101-.802-1.011-1.102-3.131-1.303-4.444-.301-1.212.401-2.02.501-3.434.101-.809-.901-.809-1.503-.809-.901 0-1.903-.102-2.806-.102-.301 0-.601.102-.902.202-.4.2-.501.808-.1 1.11.301.201.501.403.802.403 2.004.606 1.403 4.949.602 6.666-.302.606-.501 2.323-1.503 2.323-.501 0-.701-.404-.803-.809-.901-1.918-1.703-4.142-2.505-6.061-1.002-2.322.803-1.616.803-2.523 0-.606-.302-.91-.803-1.012-.7-.101-3.206-.101-4.009.102-.601.102-.802.707-.4 1.213.1.201.301.303.4.404 1.304 1.211 2.105 3.332 2.706 5.049.101.304.2.605.301.809v.303c-.199.303 0 .707.101 1.01.4.707.701 1.517 1.203 2.224l.1.103c.2.604.501 1.211.701 1.816.301.707.501 1.312.802 1.919.701 1.01 1.704.81 2.205-.202.301-.707.501-1.414.701-2.121.199-.908.802-1.717 1.402-2.424.401-.402.902-.402 1.103.202.199.505.301 1.01.4 1.517.2.907.401 1.816.902 2.727.4.808 1.303.908 1.903.303a2.41 2.41 0 00.602-1.111c.4-1.211 1.002-2.828 1.503-3.938.601-1.414 1.102-2.426 1.402-3.535.2-.402.302-.809.501-1.212.101-.304.401-.604.501-.909 0-.102-.1-.202-.301-.202.2-.706.602-1.413 1.203-1.817.301-.303.501-.707.701-1.01.203-.914-.098-1.519-.699-1.519zm8.819 13.33c-.501-.505-.701-1.111-.701-1.817V55.25c0-.505.101-2.524.101-4.241.2-.605.301-1.111.301-1.718 0-.202-.1-.403-.2-.505 0-.404.101-.809.101-.809v-1.716c-.101-.707-.602-1.011-1.203-.809-.701.303-1.503.605-2.105.909-1.202.606-1.303 1.11-.501 2.222.701.909.902 1.818.701 2.93-.1 1.211-.301 3.635-.301 4.849 0 1.11-.2 2.12-1.002 2.827-.1.102-.401.304-.401.404-.1.403-.1.807.2 1.01 0 0 .2.102.301.102l.302.102h.401c1.103.102 2.205.102 3.307.102.302 0 .602-.102.902-.202.601-.202.802-.909.401-1.414-.003-.003-.304-.306-.604-.508zm-1.403-17.673l.199-.102h.101l.2-.101.199-.202c.401-.505.701-1.312.501-1.919-.199-.707-.802-1.01-1.402-1.11-.401 0-.902.101-1.303.303-.803.303-.902.605-.902 1.414-.098 1.717.803 2.222 2.407 1.717zm20.743 4.04c-.601-.102-1.303-.102-1.804.303-.501.405-.701.707-1.303.909-.501.101-1.002.2-1.503-.103l-.301-.201c-1.604-.809-3.708-.908-5.512-.203-1.103.203-2.105.606-2.706 1.517-.301.505-.301.909-.401 1.414-.1.202-.1.505-.199.707-.2.403-.302.707-.302 1.212 0 .404.302.809.501 1.212.2 1.011.701 2.021 1.503 2.728l.2.102c.501.505.401.909-.1 1.312-.301.304-.701.506-1.103.809-.501.605-.802 1.312-.802 1.919 0 1.515.701 2.121 1.604 2.323.1 0 .199.303.1.404-1.002.604-1.603 1.414-2.205 2.424l-.1.201-.101.303c-.1.506-.1 1.111 0 1.718.101.808.401 1.414.803 2.021.4.504.901.908 1.503 1.211.601.305 1.202.506 1.903.506.703.1 1.305.1 1.906.1 1.203 0 1.303 0 2.404-.303.501-.102 1.002-.305 1.503-.506.501-.303 1.002-.506 1.503-.809.501-.404.902-.908 1.304-1.312.301-.404.601-1.011.802-1.616.1-.202.1-.505.2-.707.501-.809.601-1.717.301-2.523-.2-.404-.301-.91-.602-1.213-.301-.304-.802-.707-1.102-1.011-.401-.403-1.002-.707-1.603-.81-.302-.101-.501-.303-.803-.303-1.903-.403-3.107 0-5.011-.303h-.301c-.501-.102-.802-.707-.701-1.312.2-.908.803-1.312 1.604-1.312 2.706.305 7.015-.707 7.015-4.545 0-3.535-.902-3.636-.401-4.04 1.002-.604 1.203.909 2.607.909 1.102 0 1.503-.707 1.503-1.414-.3-.91-.801-1.517-1.803-1.718zm-8.418 16.461c1.704 0 4.81.604 4.61 3.131-.2 2.021-1.903 3.435-4.61 3.435-1.002 0-2.105-.707-2.706-1.516-1.903-2.425-.199-5.05 2.706-5.05zm.501-6.764c-2.105 0-2.806-2.828-2.806-4.646s.901-3.637 3.006-3.637c1.903 0 2.705 2.93 2.705 4.041.001 1.816-.7 4.242-2.905 4.242zm29.463-1.415a1.094 1.094 0 00-.802-.81c-.301-.103-.601-.103-.901-.103-.803-.101-1.604-.101-2.306-.101-.301 0-.501-.303-.501-.505v-2.02c0-.404 0-.81-.1-1.313-.101-.403-.401-.808-.802-.808h-.2s-.101 0-.101.101a1.1 1.1 0 00-.803.808c-.1.305-.1.606-.1.91-.101.809-.101 1.615-.101 2.424 0 .201-.199.403-.4.403h-2.405c-.4 0-.901.101-1.303.304-.2.102-.4.504-.4.809v.303c.1.202.301.404.501.506.301.102.601.201.901.201h2.705c.302 0 .501.202.501.505v2.425c0 .403.101.908.302 1.312.101.202.501.402.802.402h.302c.199-.101.4-.303.501-.504.101-.304.199-.605.199-.908v-2.729c0-.303.302-.505.501-.505h2.004c.401 0 .803 0 1.304-.101.4-.103.803-.404.803-.81v-.2c-.001.104-.001.004-.101.004zm27.657-15.453c-.3-.809-.901-.909-1.703-.606-.803.404-2.606.404-4.71.304a12.255 12.255 0 00-1.002-.304c-.802-.101-1.704.101-2.403.202-1.806 0-4.009.102-5.412-.303-.701-.202-1.203-.202-1.704.404-.2.201-.301.403-.501.605a1.35 1.35 0 00-.701.808c0 .202.101.505.101.808-.101.304-.199.606-.4.91-.301.707-.399 1.414-.301 2.121 0 .504.501.808.902.504a3.142 3.142 0 001.102-.908c.301-.404.601-.909.902-1.313.501-.808 1.503-1.515 2.104-1.616a4.996 4.996 0 011.202-.201c.901 0 2.807.504 2.707 2.524 0 1.616-.102 3.133-.201 4.747l-.3 6.363c-.201.604-.201 1.312-.102 2.02v1.111c0 1.717-.399 2.121-2.205 2.424l-.699.103h-.102s-.101 0-.101.101c-.501.303-.7 1.01-.101 1.414.2.101.401.303.701.303.603.101 1.203.202 1.903.101.702 0 1.304-.101 2.004 0 .4.103.803 0 1.204.103l3.107.103h1.001c.501-.103.902-.404.902-.91.1-.504-.201-1.01-.804-1.211-.501-.103-1.102-.203-1.702-.203-.702.102-1.403-.403-1.605-1.211-.101-.404-.2-.81-.101-1.213.101-2.021.302-4.039.4-6.16.101-.606.101-1.213.101-1.92v-3.838c0-.201 0-.304.101-.504.102-.506.4-.809.4-1.313 0-.202-.199-.304-.4-.404v-.409c0-.304-.101-.707 0-.91.102-.605.4-1.01 1.002-1.11.301 0 .603-.101.802-.202h.501c.2 0 .401.102.602.102h.101l.2.101c.501.303 1.303 1.01 1.603 1.515.401.506.602 1.111 1.002 1.616.2.404.501.707.804 1.011l.3.303c.602.201 1.304-.103 1.402-.707 0-.303 0-.707-.1-1.111-.599-1.114-1.201-2.629-1.803-4.144zm16.236 20.5c-.303-.102-.702-.201-1.104-.303-.802-.102-1.203-.605-1.303-1.414-.1-.605-.1-1.213-.1-2.021.198-.505.3-1.011.399-1.515.102-.404.102-.81 0-1.213a.78.78 0 00-.2-.504c0-.507.101-1.012.101-1.414.101-.91-.199-1.92-.501-2.828-.101-.404-.4-.81-.701-1.01-1.203-.91-2.505-1.313-4.009-.91-1.304.304-1.904.506-3.107 1.011-.603.202-1.503 1.01-1.904 1.515-.701 1.111-.1 2.323 1.202 2.424.901.103 1.705-.303 2.105-1.111.2-.504.501-1.717.802-2.119.501-.606 1.503-.606 2.105 0 .803.908.803 2.727.702 3.938-.102.909-1.002 1.616-1.705 1.92-1.202.605-2.105.809-3.609 1.817-.301.202-.699.505-.901.808l-.101.103c-.301.2-.699.505-.901.808-.199.202-.101.506-.101.809v.403c-.4 1.414.602 3.03 2.004 3.435 1.203.404 2.105 0 3.108-.504.501-.303 2.004-1.313 2.607-1.313.701-.101.301.909 1.303 1.616 2.807 1.611 5.011-1.922 3.809-2.428zm-5.813-1.211c-.198 1.211-1.102 1.516-2.203 1.312h-.201l-.501-.102c-.7-.303-.901-1.413-.501-2.021.501-1.01 1.304-1.614 2.206-2.121.699-.403 1.201-.101 1.201.707l-.001 2.225zm15.031 1.414c-.9-.102-1.202 0-1.503-.908 0 0-.101-.303-.101-.404v-.202c-.199-3.333.302-7.675.101-10.806v-.807c.102-.707.302-1.414.302-2.122 0-.606-.101-1.111-.101-1.717v-.707c.101-.203.301-.304.301-.506v-.404c0-.201-.101-.303-.101-.403 0 0 0-.101-.1-.101v-.506c0-.303 0-.505-.101-.707-.4-.707-.901-1.01-1.704-.707-.602.202-3.405 1.213-4.009 1.717-.301.304-.199.91.302 1.011.302.101.7.202 1.102.303.602.101 1.002.505 1.103 1.11v.203c0 .201.102.403.102.707-.102 1.01 0 2.02.1 3.029.101.81.101 1.718 0 2.525-.302 2.121-.2 2.222-.2 4.04-.101.605-.199 1.312-.399 1.816-.201.81-.102 1.818 0 2.627.1.504.1.809.1 1.211-.1.81-.501 1.111-1.503 1.313-.4.101-.701.101-1.102.202-.702.202-.803.908-.302 1.312.501.403 1.002.506 1.603.403h.302l5.613-.103c.501 0 1.103-.907 1.002-1.514 0-.102 0-.203-.101-.304-.005-.298-.306-.5-.706-.601zm9.419-5.959c1.904-.102 3.507.102 5.412-.304.7-.101 1.102-1.01 1.202-1.919.102-.101.102-.201.102-.303.1-.202.1-.505.1-.707 0-.303-.1-.505-.302-.707-.1-.102-.1-.102-.199-.102-1.203-2.121-2.104-2.524-4.51-3.231-.901-.304-1.805-.101-2.606.303-1.403.606-2.505 1.515-3.407 2.828-.901 1.313-1.402 2.828-1.402 4.747 0 .303.1.707.1 1.01 0 .809-.1 1.516.302 2.223a2.765 2.765 0 001.103 1.312 12.17 12.17 0 001.903 2.121c1.804 1.312 3.609 1.717 5.711.809.803-.304 1.503-.809 2.105-1.414.4-.304.501-.809.701-1.213.101-.504-.302-.908-.803-.908-.501.102-1.102 1.312-1.603 1.516-2.306.809-3.609-.202-4.611-1.616-.701-.808-.901-2.222-.803-3.231-.098-.91.403-1.214 1.505-1.214zm-1.002-4.541c.501-.81.902-1.213 1.705-1.313h.799c1.103.303 2.004.808 2.004 2.323.201 2.727-2.004 2.424-3.907 1.919-1.502-.305-1.001-2.325-.601-2.929zm14.824-6.482a3.73 3.73 0 011.797.476c.585.317 1.04.771 1.366 1.362.326.591.489 1.207.489 1.848a3.76 3.76 0 01-.481 1.831 3.411 3.411 0 01-1.353 1.365 3.683 3.683 0 01-1.818.485c-.634 0-1.24-.162-1.819-.485-.58-.324-1.031-.779-1.354-1.365s-.484-1.196-.484-1.831c0-.641.164-1.257.491-1.848a3.38 3.38 0 011.369-1.362 3.722 3.722 0 011.797-.476zm0 .61c-.514 0-1.014.133-1.5.398a2.847 2.847 0 00-1.141 1.138 3.131 3.131 0 00-.412 1.54c0 .531.135 1.039.404 1.526.27.486.647.865 1.132 1.138.484.271.989.407 1.517.407.526 0 1.031-.136 1.516-.407a2.868 2.868 0 001.129-1.138 3.11 3.11 0 00.402-1.526c0-.533-.137-1.047-.409-1.54a2.822 2.822 0 00-1.141-1.138 3.109 3.109 0 00-1.497-.398zm-1.605 5.112V43.46h1.353c.461 0 .796.037 1.002.11a.975.975 0 01.495.383c.122.182.184.376.184.582 0 .289-.103.541-.308.756s-.478.336-.816.361c.139.059.25.129.334.21.158.156.353.419.582.786l.479.776h-.775l-.349-.625c-.274-.491-.496-.799-.664-.923-.116-.091-.285-.137-.509-.137h-.373v1.685h-.635zm.635-2.231h.77c.368 0 .619-.055.754-.166a.54.54 0 00.2-.439c0-.117-.032-.222-.097-.314s-.154-.162-.269-.207c-.115-.047-.327-.069-.637-.069h-.723v1.195z" fill="#45444e"/></svg>