<?xml version="1.0" encoding="UTF-8"?>
<svg id="Layer_2" data-name="Layer 2" xmlns="http://www.w3.org/2000/svg" viewBox="0 0 121.06 103.06">
  <defs>
    <style>
      .cls-1, .cls-2, .cls-3, .cls-4 {
        stroke: #72601f;
        stroke-miterlimit: 10;
        stroke-width: 5px;
      }

      .cls-1, .cls-4 {
        fill: #d7cba2;
      }

      .cls-2 {
        fill: #d9b943;
      }

      .cls-3 {
        fill: #ad953b;
      }

      .cls-4 {
        stroke-linecap: round;
      }
    </style>
  </defs>
  <g id="Layer_1-2" data-name="Layer 1">
    <g>
      <path class="cls-2" d="m68.56,13.81v-.87c0-5.77-5.37-10.44-12-10.44h-26c-6.63,0-12,4.67-12,10.44v66.12c0,5.77,5.37,10.44,12,10.44h76c6.63,0,12-4.67,12-10.44v-44.37c0-5.77-5.37-10.44-12-10.44h-26c-6.63,0-12-4.67-12-10.44Z"/>
      <path class="cls-3" d="m28.17,13.77c.45.06.64.61.3.92-.94.85-2.83,2.64-6.48,6.38-7.55,7.71,12.23,9.21,12.39,21.62.12,9.55-12.35,14.11-18.12,15.71-1.78.49-3.69-.07-4.89-1.47-3.24-3.76-8.96-11.95-6.62-20.74,3.08-11.57,13.28-23.66,23.43-22.41Z"/>
      <path class="cls-3" d="m92.15,80.31c0-.45-.52-.72-.87-.42-.97.81-3.01,2.44-7.21,5.54-8.68,6.42-7.43-13.38-19.71-15.24-9.14-1.39-15.27,9.55-17.81,15.23-.91,2.04-.55,4.41.96,6.06,3.46,3.8,10.55,10.01,19.21,8.95,11.89-1.46,25.26-9.9,25.42-20.12Z"/>
      <g>
        <path class="cls-1" d="m57.52,67.35c0-7.47-3.32-14.11-11.62-14.36-1.72-.05-2.66.59-4.11.22-.44-.11-.85-.34-1.19-.64-3.27-2.87-6.39-6.03-11.04-6.03-4.32,0-8.16,2.03-10.63,5.18-.61.77-1.52,1.24-2.5,1.21-.13,0-.27,0-.4,0-7.47,0-13.53,6.06-13.53,13.53,0,4.19,1.91,7.92,4.89,10.4,1.01.84,1.38,2.22.89,3.45-.8,2.03-1.13,4.31-.82,6.69.77,5.99,5.59,10.84,11.58,11.64,3.24.43,6.28-.29,8.8-1.81.9-.54,2.04-.54,2.94,0,2.52,1.52,5.57,2.24,8.81,1.81,6.02-.8,10.85-5.71,11.58-11.74.3-2.43-.06-4.74-.92-6.8-.5-1.21-.16-2.58.83-3.44,2.85-2.48,6.44-5.23,6.44-9.3Z"/>
        <path class="cls-4" d="m30.02,75.65c-2.98-8.94-12.09-7.66-12.09-7.66"/>
        <path class="cls-4" d="m38.72,64.5s-6.34-.85-8.06,11.15"/>
      </g>
    </g>
  </g>
</svg>